<svg xmlns="http://www.w3.org/2000/svg" width="696" height="358" fill="none" viewBox="0 0 696 358">
  <path fill="#fff" d="M0 0h696v358H0z"/>
  <path fill="#EAEBED" d="M49.635 320.076c11.263 7.147 22.515 14.294 33.66 21.63-11.112-3.305-22.31-6.643-32.52-12.134-10.21-5.486-19.49-13.346-24.697-23.704-5.204-10.358-5.778-23.425.324-33.283 8.631-13.945 29.33-20.813 44.013-12.711 6.102 3.362 11.982 8.881 18.875 7.844 13.756-2.079 23.351-16.012 36.35-20.748 14.039-5.113 29.699-5.847 44.124-1.857 5.794 1.603 23.024 8.085 23.717-3.474.205-3.464-1.317-6.818-1.411-10.287-.467-16.722 45.818-1.112 55.589-9.198 8.131-6.728 10.013-17.886 17.558-25.27 8.902-8.714 20.379-14.339 30.224-21.86 11.867-9.07 23.774-24.897 17.898-40.565-2.64-7.04-8.483-13.65-6.958-21.014.898-4.351 4.232-7.725 7.409-10.825l26.399-25.78c2.001-1.951 4.416-4.055 7.192-3.71 3.202.397 5.121 4.038 4.965 7.261-.155 3.223-1.763 6.163-3.001 9.144-5.876 14.138-3.473 31.545 6.638 43.153 6.122 7.028 15.016 12.584 17.005 21.691 2.091 9.57-3.03 22.802 5.646 27.345 4.51 2.362 10.185.255 15.024 1.837 9.824 3.219 9.099 17.193 13.687 26.46 6.052 12.224 21.486 15.652 32.967 23.016 12.404 7.955 20.49 20.973 30.856 31.446 13.314 13.453 30.736 22.782 49.315 26.398 7.963 1.55 18.062 1.074 21.769-6.138 3.887-7.561-1.931-18.169 3.49-24.721 6.212-7.504 17.91-.972 26.373 3.85 12.904 7.356 27.981 9.623 42.616 12.19 14.63 2.567 29.707 5.778 41.676 14.573 11.969 8.8 19.973 24.705 15.184 38.765-5.359 15.742-23.52 22.844-39.905 25.681-61.03 10.567-122.581-10.513-184.239-16.385-63.031-5.999-125.968 3.957-188.668 9.238-64.663 5.449-127.157-.619-191.423-7.819"/>
  <path fill="#CFCFCF" d="M317.944 194.714c-.115 5.466.615 10.989-.389 16.365-1.005 5.372-4.277 10.809-9.542 12.285-7.418 2.079-16.746-3.978-22.392 1.259-4.306 3.993-2.428 11.239-4.773 16.623-4.761 10.931-22.704 8.287-29.892 17.799-2.55 3.375-3.522 8.074-7.061 10.395-4.285 2.805-9.898.713-14.86-.558-20.153-5.158-40.823 5.097-58.455 16.144a484.792 484.792 0 00-34.402 23.683c-2.338 1.764-4.769 3.691-5.778 6.438-1.603 4.351.894 9.111 3.793 12.728 13.548 16.889 41.439-.505 63.044.898 37.416 2.423 65.422-4.179 102.899-5.376 26.411-.845 50.484 4.018 76.473-.767 24.446-4.502 54.379 3.002 79.236 2.78 11.419-.102 23.753 2.046 33.561-3.801 1.317-.783 2.588-1.738 3.354-3.063 2.211-3.817-.602-8.537-3.571-11.792-11.834-12.966-49.795-8.209-59.948-22.532-27.087-38.216-39.72-36.567-69.731-46.982-3.9-1.354-7.971-2.719-10.899-5.626-2.928-2.907-4.281-7.873-1.849-11.207 2.251-3.083 6.733-3.682 9.34-6.474 5.52-5.917-.975-15.208-.93-23.299.02-3.333 1.222-6.54 1.689-9.836 1.525-10.743-9.337-27.362-21.589-23.533-11.846 3.691-17.111 27.243-17.328 37.449z" opacity=".27"/>
  <g>
    <path fill="#FFD803" d="M324.7 162.374c-3.142 2.346-6.375 4.796-8.261 8.233-2.576 4.693 1.279 8.556 2.85 12.746.941 2.5 1.413 4.27.891 6.931-.442 2.247-3.31 4.62-1.602 7.016 2.401 3.337 6.717 1.386 9.044 6.056 1.905 3.821 1.16 8.306 3.61 11.943 2.538 3.771 6.858 6.724 8.448 11.086 1.674 4.585-2.031 11.336 3.084 14.551 2.726 1.716 6.543.261 8.498-2.301 4.109-5.387 4.047-15.437 5.073-21.846.476-2.976 2.553-6.909 5.299-5.664 1.724.783 4.071 13.214 7.673 6.781.706-1.263.61-2.803.495-4.243-.165-2.031-.849-4.32-.538-6.359 1.129-7.404 2.904-11.386.603-19.178-.245-.837-.43-1.897.25-2.446.357-.288.849-.33 1.306-.357 2.864-.181 6.178.007 7.714-2.999 1.656-3.242-2.223-5.699-3.321-8.414.219.545 7.895 2.746 9.139 3.429-2.35-5.614-8.01-9.95-13.774-11.616"/>
    <path fill="#C7A800" d="M328.517 189.243c.826 2.658 2.062 5.061 3.759 7.005 1.333 1.524 2.957 2.841 3.825 4.7.745 1.594.853 3.437 1.536 5.061 2.642 6.279 7.577-.422 9.313-3.533 2.15-3.844 4.277-4.977 8.325-4.919.453.008.96-.011 1.271-.357.292-.326.296-.83.23-1.275-.357-2.473-3.018-5.918-.414-8.026 1.029-.833 2.369-1.083 3.606-1.517 6.201-2.185 6.052-13.578 5.817-19.047-.088-2.058-.902-4.02-2.012-5.722-6.19-9.504-22.161-9.539-29.673-1.49-6.098 6.529-8.567 19.501-5.583 29.12z"/>
    <path fill="#727272" d="M405.83 170.281c-3.302 2.631-27.307-15.449-50.724-36.289l26.551-21.152c14.984 27.557 27.18 55.045 24.173 57.441zM289.459 170.281c3.302 2.631 27.307-15.449 50.724-36.289l-26.55-21.152c-14.985 27.557-27.181 55.045-24.174 57.441z"/>
    <path fill="#CFCFCF" d="M310.749 116.734c0 31.573 16.032 48.892 35.809 48.892 19.777 0 35.809-17.319 35.809-48.892 0-12.611-4.14-31.697-9.735-50.076h-52.425c-5.476 18.38-9.458 37.465-9.458 50.076z"/>
    <path fill="#727272" d="M346.558 13c-6.521 0-18.122 26.029-26.355 53.658h52.425C364.215 39.028 352.495 13 346.558 13z"/>
    <path fill="#B7B7B7" d="M373.109 161.855h-53.102c-4.174 0-7.588-3.413-7.588-7.588 0-4.174 3.414-7.588 7.588-7.588h53.102c4.174 0 7.588 3.414 7.588 7.588 0 4.175-3.414 7.588-7.588 7.588z"/>
    <path fill="#727272" d="M370.701 165.995h-48.286a2.079 2.079 0 01-2.07-2.07c0-1.137.933-2.07 2.07-2.07h48.286c1.137 0 2.07.933 2.07 2.07 0 1.136-.929 2.07-2.07 2.07z"/>
    <g>
      <path fill="#fff" d="M346.558 88.043c-10.384 0-18.798 8.418-18.798 18.798 0 .576.035 1.14.085 1.701 11.029-4.481 21.977-9.112 32.706-14.224-3.44-3.844-8.429-6.275-13.993-6.275z"/>
      <path fill="#EAEBED" d="M327.845 108.543c.86 9.585 8.905 17.096 18.713 17.096 10.383 0 18.797-8.418 18.797-18.797 0-4.816-1.828-9.198-4.804-12.523-10.729 5.111-21.677 9.742-32.706 14.224z"/>
    </g>
  </g>
</svg>
