<svg xmlns="http://www.w3.org/2000/svg" width="337" height="300" fill="none" viewBox="0 0 337 300">
  <g clip-path="url(#clip0_16:7)">
    <path fill="#fff" d="M0 0h336.491v300H0z"/>
    <path fill="#FFD803" d="M37.23 235.243c-.39-2.861-.308-6.387 2.178-7.852 3.654-2.153 7.473 2.246 11.049 4.531.82.523 1.765.955 2.73.849.962-.106 1.797-.74 2.423-1.479 2.2-2.585 2.295-6.327 1.941-9.704-.353-3.378-1.036-6.865-.017-10.101 1.015-3.236 4.52-6.012 7.692-4.827 7.14 2.67 7.377-7.141 10.631-10.992 1.372-1.624 3.498-2.773 5.588-2.409 2.051.361 3.607 2.055 4.672 3.845 2.422 4.074 3.331 9.832 1.556 14.341-1.67 4.24-6.752 6.811-6.426 11.957.226 3.54 3.363 6.529 3.109 10.065-.213 2.953-2.738 5.273-3.286 8.181-.736 3.918 2.26 7.897 1.28 11.762-.636 2.511-2.84 4.386-3.54 6.883-.863 3.077.725 6.242 1.181 9.404.976 6.772-3.922 14.21-10.984 14.999-6.038.675-10.165-5.574-13.758-9.733-9.627-11.151-16.035-25.107-18.02-39.72z"/>
    <path fill="#fff" d="M66.556 267.67h-.04a.661.661 0 01-.622-.7l2.03-35.982c.018-.364.298-.633.7-.622a.661.661 0 01.623.7l-2.03 35.982a.66.66 0 01-.661.622z"/>
    <path fill="#fff" d="M67.744 246.627a.655.655 0 01-.435-.162l-9.11-7.965a.661.661 0 11.87-.997l9.11 7.964a.661.661 0 01-.435 1.16z"/>
    <path fill="#EAEBED" d="M64.034 288.42c-2.935-.598-5.966-2.642-8.93-4.212-6.475-3.431-7.848-9.259-34.829-8.368-12.54.414-6.206-14.426-15.006-23.423-2.78-2.84-5.552-6.044-6.175-9.97-.622-3.926 1.892-8.587 5.86-8.799 2.384-.127 4.531 1.291 6.752 2.161 2.221.87 5.22.969 6.518-1.033-1.761-2.369-4.28-4.046-6.401-6.101-2.119-2.054-3.94-4.802-3.636-7.738.47-4.537 4.873-2.642 6.157-4.721 1.723-2.791-.106-8.941.867-12.502 2.277-8.35 14.995-13.956 21.612-6.745 7.657 8.35 6.578 22.133 5.956 33.492-.867 15.795 15.14 17.829 22.118 27.211 5.033 6.762 12.955 19.25 6.667 27.551-2.363 3.115-4.91 3.731-7.53 3.197z"/>
    <path fill="#fff" d="M70.722 290.531a.66.66 0 01-.516-.248L35.062 246.79a.664.664 0 011.03-.835l35.143 43.497a.664.664 0 01-.513 1.079z"/>
    <path fill="#fff" d="M53.42 270.132a.717.717 0 01-.226-.039l-20.838-7.583a.663.663 0 01.453-1.244l20.838 7.582c.343.124.52.506.396.849a.658.658 0 01-.622.435zM43.529 257.039a.717.717 0 01-.227-.039l-20.838-7.582a.662.662 0 11.453-1.245l20.838 7.582c.343.124.52.506.396.849a.67.67 0 01-.622.435zM60.688 279.125a.659.659 0 01-.661-.665l.05-18.326a.661.661 0 111.323.003l-.05 18.327a.662.662 0 01-.662.661z"/>
    <g>
      <path fill="#FFD803" d="M307.496 220.573c-5.637 1.093 14.674-6.776 9.04-5.683 3.338-7.763-9.956-6.455-6.953-14.306-8.609-.138-18.674-10.164-19.459-3.18 18.575-28.784-4.615-23.794-10.27-42.977-.693-2.355-2.338-5.121-5.312-5.156-1.995-.021-3.64 1.273-4.75 2.624-9.255 11.271 3.416 26.687-.697 39.826-3.147.509-5.499-2.171-7.331-4.318-1.832-2.147-5.482-4.237-7.908-2.522-1.673 1.181-1.348 3.335-.796 5.082 2.656 8.364 7.353 16.297 13.733 23.197-2.702 1.535-6.239-.357-8.866-1.973-2.628-1.617-6.918-2.83-8.739-.598-1.04 1.277-.531 2.985.159 4.41 2.051 4.23 5.435 8.025 9.743 10.925 7.084 4.767-2.369 5.043-2.125 9.347.272 4.778 4.233 5.546 3.271 11.144-1.217 7.059-7.657 11.823 4.764 12.704 8.166.58 18.044-4.86 23.494-9.224 4.848-3.88 8.771-9.025 11.911-13.902 1.033-1.61 6.317-15.272 7.091-15.42z"/>
      <path fill="#CFCFCF" d="M261.414 266.928c24.859-4.499 48.798-13.174 70.259-25.464 2.079-1.192 4.219-2.493 5.421-4.449 1.203-1.956 1.125-4.75-.82-6.118-1.542-1.083-3.689-.969-5.627-.807-5.733.481-11.466.966-17.195 1.447a248.368 248.368 0 0017.913-17.977c1.414-1.574 2.804-3.961 1.273-5.439-.842-.814-2.203-.899-3.427-.934-3.077-.081-6.154-.166-9.231-.248a57.883 57.883 0 007.788-13.697c.842-2.118 1.563-4.392 1.054-6.599-.509-2.204-2.638-4.251-5.1-4.078-1.308.092-2.475.767-3.536 1.471-8.711 5.8-14.334 15.289-14.879 25.114-.223 4.028-.439 9.223-4.637 10.497-1.503.456-3.144.212-4.721.367-6.055.602-9.489 6.727-10.352 12.227-.859 5.495-.353 11.402-3.307 16.254-1.255 2.062-3.069 3.802-4.367 5.839-1.298 2.041-2.041 4.612-.937 6.744 1.103 2.133 4.632 3.162 6.387 1.429"/>
      <path fill="#fff" d="M274.114 250.797c-.025 0-.05 0-.078-.003a.662.662 0 01-.584-.732l6.978-61.704a.661.661 0 111.316.148l-6.978 61.704a.658.658 0 01-.654.587z"/>
      <path fill="#fff" d="M276.71 227.816a.661.661 0 01-.506-1.089l15.872-18.96a.662.662 0 111.015.852l-15.872 18.96a.662.662 0 01-.509.237zM278.439 212.545a.668.668 0 01-.527-.262l-9.757-12.881a.66.66 0 111.053-.799l9.758 12.881a.66.66 0 01-.527 1.061zM291.037 259.228a.662.662 0 01-.591-.965l21.103-40.891a.662.662 0 011.178.605l-21.103 40.891a.656.656 0 01-.587.36z"/>
      <path fill="#fff" d="M302.8 236.435a.665.665 0 01-.623-.435l-3.151-8.619a.661.661 0 111.245-.453l3.151 8.619a.664.664 0 01-.622.888zM299.624 243.42a.66.66 0 01-.662-.658.662.662 0 01.658-.669l17.188-.127h.004a.66.66 0 01.661.658.66.66 0 01-.658.668l-17.188.128h-.003z"/>
    </g>
    <g>
      <path fill="#D4A79A" d="M139.025 237.305c.212-.655.435-1.302.668-1.949 8.103-22.433 28.438-38.259 49.708-49.053 7.338-3.724 15.112-7.162 20.661-13.234 12.64-13.829 8.788-36.64-7.653-45.57 7.635 4.145 29.729-4.421 17.838-13.149-2.811-2.066-6.355-2.808-9.496-4.325-3.14-1.518-6.15-4.382-5.934-7.866.095-1.521.803-2.939 1.659-4.202 3.749-5.517 10.348-8.646 13.885-14.302.781-1.252 1.414-2.68 1.29-4.152-.198-2.334-2.298-4.145-4.555-4.767-22.443-6.182-39.737 21.096-61.955 18.613-1.269-.141-2.627-.364-3.759.227-1.316.69-1.882 2.249-2.26 3.685-2.628 9.895-1.85 20.664 2.179 30.079 3.345 7.823 8.983 15.36 8.134 23.826-.76 7.579-6.702 14.108-6.543 21.722.043 2.027.52 4.096 0 6.055-.785 2.953-3.607 4.859-6.341 6.224-13.298 6.639-28.785 6.741-43.26 10.108-1.022.237-2.094.52-2.837 1.259-1.294 1.284-1.124 3.374-.944 5.188 1.415 14.136-1.963 28.265-5.315 42.069L83.086 289.53c-.393 1.613-.725 3.505.347 4.771.587.697 1.485 1.04 2.344 1.34a85.248 85.248 0 0015.356 3.813c4.138.629 8.453.937 12.442-.333 6.2-1.973 10.66-7.473 13.56-13.297 7.441-14.953 6.726-32.651 11.89-48.519z"/>
      <path fill="#D4A79A" d="M108.684 152.383c2.603-6.875 5.966-13.457 8.233-20.452 1.822-5.624 2.911-11.459 3.813-17.302 1.648-10.655 1.655-21.407 2.094-32.183 5.513 2.557 11.83 8.594 12.767 14.6.933 6.004-1.047 12.119-1.701 18.163-1.609 14.914-2.066 31.197 6.953 43.183 3.409 4.53 7.847 8.187 11.412 12.594 3.565 4.41 6.296 10.015 5.334 15.603-1.192 6.936-7.53 11.661-13.553 15.3a193.024 193.024 0 01-24.618 12.569c-5.005 2.119-5.79 4.368-12.552 4.439-3.706.038-8.76-12.481-7.388-27.706 1.517-16.888 3.116-22.716 9.206-38.808z"/>
    </g>
    <g>
      <path fill="#EAEBED" d="M195.611 20.088h-60.3c-6.857 0-12.466 5.61-12.466 12.467v60.48c26.56-23.844 53.636-47.112 81.866-68.94-2.278-2.45-5.51-4.007-9.1-4.007z"/>
      <path fill="#CFCFCF" d="M204.714 24.095c-28.229 21.828-55.302 45.096-81.866 68.94v87.1c0 6.854 5.609 12.467 12.467 12.467h60.296c6.858 0 12.467-5.609 12.467-12.467V32.551c0-3.204-1.235-6.125-3.24-8.34-.042-.038-.085-.073-.124-.116z"/>
      <path fill="#B7B7B7" fill-rule="evenodd" d="M135.311 20.088h60.3c6.854 0 12.463 5.61 12.463 12.467v147.584c0 6.857-5.609 12.466-12.466 12.466h-60.297c-6.857 0-12.466-5.609-12.466-12.466V32.555c0-6.858 5.609-12.467 12.466-12.467zM190.2 176.51c6.858 0 12.467-5.609 12.467-12.467V38.351c0-6.857-5.613-12.466-12.467-12.466h-49.481c-6.858 0-12.467 5.609-12.467 12.466v125.692c0 6.858 5.609 12.467 12.467 12.467H190.2z" clip-rule="evenodd"/>
      <path fill="#E3E5FC" d="M173.829 24.035h-16.735a.372.372 0 01-.372-.371v-.68c0-.205.167-.37.372-.37h16.735c.205 0 .371.165.371.37v.68a.371.371 0 01-.371.371z"/>
      <path fill="#EAEBED" d="M165.461 188.443a4.421 4.421 0 100-8.842 4.421 4.421 0 000 8.842z"/>
      <g>
        <path fill="#fff" d="M167.173 121.533c13.065 0 23.657-10.591 23.657-23.657 0-13.065-10.592-23.656-23.657-23.656s-23.656 10.591-23.656 23.656c0 13.066 10.591 23.657 23.656 23.657z" opacity=".36"/>
        <path fill="#FFF3B3" d="M167.173 115.79c9.893 0 17.913-8.02 17.913-17.914 0-9.893-8.02-17.913-17.913-17.913s-17.913 8.02-17.913 17.913c0 9.894 8.02 17.914 17.913 17.914z" opacity=".36"/>
        <path fill="#FFD803" d="M167.173 107.546c5.34 0 9.669-4.329 9.669-9.67 0-5.34-4.329-9.669-9.669-9.669-5.34 0-9.669 4.33-9.669 9.67s4.329 9.669 9.669 9.669z"/>
      </g>
      <g>
        <path fill="#B7B7B7" d="M224.604 25.584a1.327 1.327 0 01-1.326-1.326c0-11.912-9.69-21.606-21.605-21.606a1.327 1.327 0 010-2.652c13.372 0 24.254 10.879 24.254 24.254.004.736-.59 1.33-1.323 1.33z"/>
        <path fill="#B7B7B7" d="M217.174 25.584a1.327 1.327 0 01-1.326-1.326c0-7.314-5.949-13.262-13.262-13.262a1.327 1.327 0 110-2.653c8.774 0 15.911 7.137 15.911 15.915a1.322 1.322 0 01-1.323 1.326z"/>
      </g>
      <g>
        <path fill="#EAEBED" d="M271.44 41.824h-33.92c-1.1 0-1.998-.898-1.998-1.998v-1.949c0-1.1.898-1.998 1.998-1.998h33.92c1.1 0 1.998.899 1.998 1.998v1.949c0 1.1-.898 1.998-1.998 1.998zM271.44 51.914h-33.92c-1.1 0-1.998-.898-1.998-1.998v-1.949c0-1.1.898-1.998 1.998-1.998h33.92c1.1 0 1.998.898 1.998 1.998v1.949a2.005 2.005 0 01-1.998 1.998zM271.44 62.001h-33.92c-1.1 0-1.998-.898-1.998-1.998v-1.949c0-1.1.898-1.998 1.998-1.998h33.92c1.1 0 1.998.898 1.998 1.998v1.949c0 1.1-.898 1.998-1.998 1.998zM271.44 72.09h-33.92c-1.1 0-1.998-.898-1.998-1.997v-1.949c0-1.1.898-1.998 1.998-1.998h33.92c1.1 0 1.998.898 1.998 1.998v1.949c0 1.1-.898 1.998-1.998 1.998z"/>
      </g>
      <g>
        <path fill="#EAEBED" d="M93.173 83.291H15.147c-1.1 0-1.998-.898-1.998-1.998v-4.089c0-1.1.899-1.998 1.998-1.998h78.026c1.1 0 1.998.899 1.998 1.998v4.089c0 1.1-.899 1.998-1.998 1.998zM93.173 97.01H45.612c-1.1 0-1.998-.898-1.998-1.998v-4.089c0-1.1.898-1.998 1.998-1.998h47.56c1.1 0 1.999.898 1.999 1.998v4.089c0 1.1-.899 1.998-1.998 1.998z"/>
        <g>
          <path fill="#EAEBED" d="M93.173 127.771H48.26c-1.1 0-1.998-.898-1.998-1.998v-4.085c0-1.1.898-1.998 1.998-1.998h44.912c1.1 0 1.998.898 1.998 1.998v4.085c0 1.1-.899 1.998-1.998 1.998zM93.172 141.49H66.425c-1.1 0-1.998-.898-1.998-1.998v-4.088c0-1.1.898-1.998 1.998-1.998h26.748c1.1 0 1.998.898 1.998 1.998v4.088c0 1.1-.899 1.998-1.999 1.998z"/>
        </g>
      </g>
    </g>
    <g>
      <path fill="#EAC2AB" d="M235.95 234.09a87.212 87.212 0 01-.732-9.68c-.382-21.637 2.801-49.93-17.888-63.175-9.309-5.959-21.613-6.341-29.167-15.317-2.78-3.303-4.276-7.529-5.694-11.66a1680.723 1680.723 0 01-12.799-38.765c-4.223.463-6.638 5.234-7.569 9.527-2.698 12.446.672 25.425 5.083 37.33 4.41 11.904 9.938 23.557 11.777 36.169.696 4.785-.761 11.504-5.426 11.328-2.465-.096-4.336-2.31-5.595-4.51-5.117-8.937-6.641-21.693-16.003-25.417-2.479-.987-6.023-.63-6.833 1.994-.438 1.415-.912 2.932-.357 4.301 7.788 19.296 13.613 36.728 25.602 53.552 4.573 6.419 14.27 13.117 18.673 19.677 15.767 23.494 15.392 27.116 28.279 52.18.853 1.659 2.582-14.217 4.173-13.316 1.532.87.485 7.869 2.218 7.654 8.753-1.086 18.939 5.245 26.79 1.089 1.305-.69 2.681-1.45 3.402-2.776.722-1.33.63-2.95.52-4.471-1.878-25.651-15.151-20.409-18.454-45.714z"/>
    </g>
    <g>
      <path fill="#CFCFCF" d="M293.24 252.665a22.244 22.244 0 00-12.308-3.717H149.776c-.254 0-.498.028-.753.038 19.243 5.058 38.291 11.113 57.141 17.56 29.567 11.823 57.587-4.814 87.076-13.881z"/>
      <path fill="#B7B7B7" d="M293.24 252.664c-29.489 9.068-57.509 25.705-87.072 13.882-18.85-6.448-37.899-12.506-57.141-17.56-11.986.404-21.673 10.306-21.673 22.387 0 12.336 10.09 22.426 22.426 22.426h131.152c12.333 0 22.426-10.09 22.426-22.426-.003-7.795-4.039-14.687-10.118-18.709z"/>
    </g>
  </g>
  <defs>
    <clipPath id="clip0_16:7">
      <path fill="#fff" d="M0 0h336.491v300H0z"/>
    </clipPath>
  </defs>
</svg>
