<svg xmlns="http://www.w3.org/2000/svg" width="624" height="403" fill="none" viewBox="0 0 624 403">
  <path fill="#fff" d="M0 0h624v402.475H0z"/>
  <path fill="#EAEBED" d="M288.142 394.445c142.583 0 258.169-6.435 258.169-14.372 0-7.938-115.586-14.372-258.169-14.372-142.582 0-258.168 6.434-258.168 14.372 0 7.937 115.586 14.372 258.168 14.372zM561.826 371.016c16.18-.861 34.096-5.073 43.996-15.309 4.876-5.042 7.128-11.492 5.804-18.661-1.493-8.096-7.98-15.435-9.415-23.558-1.48-8.366 5.078-11.416 8.056-18.019 3.373-7.469 1.642-16.947-4.728-24.411-3.22-3.773-7.554-6.962-12.456-8.931-5.231-2.1-11.08-1.772-14.005-7.07-1.767-3.202-1.592-6.674-.991-9.859 1.543-8.151 5.585-15.462 8.828-23.03 1.292-3.005 2.31-6.75-.341-9.657-5.378-5.89-18.459-4.45-24.133-2.198-6.092 2.418-10.479 7.213-11.856 12.954-1.22 5.078-.439 11.259-4.799 14.565-3.015 2.288-7.662 2.468-11.641 3.535-7.136 1.915-7.778 7.72-5.867 13.807 2.31 7.361 4.719 14.726.328 21.002-3.863 5.522-11.336 8.33-16.171 13.215-1.624 1.641-2.974 3.62-2.97 5.925.023 8.16 11.699 14.031 12.632 22.599.448 4.113-.381 8.056-.915 12.022-1.821 13.524 3.373 27.407 17.992 37.145 13.564 9.039 32.274 11.237 45.368 5.329"/>
  <path fill="#fff" d="M553.515 368.015c-.027 0-.054 0-.081-.004a.84.84 0 01-.758-.915l9.473-99.941c.045-.462.494-.816.916-.758a.84.84 0 01.758.915l-9.474 99.941a.838.838 0 01-.834.762z"/>
  <path fill="#fff" d="M558.251 318.045a.842.842 0 01-.336-1.615l28.269-12.322a.844.844 0 011.108.435.844.844 0 01-.436 1.108l-28.268 12.322a.831.831 0 01-.337.072zM559.929 297.353a.842.842 0 01-.336-1.615l28.268-12.322a.847.847 0 011.108.435.844.844 0 01-.435 1.108l-28.268 12.322a.804.804 0 01-.337.072zM559.158 308.472a.816.816 0 01-.337-.071l-25.303-11.116a.837.837 0 01-.431-1.108.847.847 0 011.108-.43l25.303 11.115c.427.189.62.682.431 1.108a.844.844 0 01-.771.502z"/>
  <path fill="#CFCFCF" d="M538.043 345.654c.09-.314.166-.628.238-.946.951-4.441-.457-8.649-4.1-11.241-2.875-2.05-7.554-2.683-8.675-6.572-.525-1.821.09-3.772.861-5.504.772-1.731 1.723-3.445 1.898-5.333.175-1.889-.691-4.051-2.499-4.634-1.31-.422-2.732.067-4.1-.067-5.1-.516-3.359-6.262-4.75-9.541-.592-1.391-1.835-2.602-3.342-2.727-1.606-.139-3.032.915-4.432 1.709-1.399.794-3.292 1.323-4.521.282-1.288-1.09-.983-3.149-.35-4.719 1.547-3.853 4.306-7.087 7.217-10.048 1.198-1.215 2.494-2.525 2.737-4.216.309-2.144-1.23-4.158-3.024-5.37-4.418-2.987-9.707-5.01-14.847-6.311-5.527-1.399-17.625-1.691-16.997 7.33.377 5.378 8.398 13.905 2.252 18.351-3.01 2.175-10.066 1.484-8.123 7.091.403 1.171 1.004 2.279 1.283 3.49 1.076 4.63-2.683 8.254-2.876 12.686-.161 3.709 3.454 6.67 5.921 8.895 1.122 1.009 2.131 2.4 1.929 3.893-.116.875-.632 1.642-.874 2.494-.449 1.579.089 3.253.197 4.89.233 3.499-2.992 3.983-4.149 6.764-2.553 6.137 9.648 5.908 12.228 9.209 2.139 2.746 1.673 6.518 3.238 9.514 3.382 6.469 14.04 8.128 20.518 8.671 4.279.359 8.881-.421 12.106-3.256 3.526-3.1 4.679-7.783 6.738-11.816 2.409-4.75 6.787-7.666 8.298-12.968z"/>
  <path fill="#FFD803" d="M543.274 364.759c-1.817-4.32-1.292-9.218-.736-13.874.184-1.557.39-3.163 1.202-4.504.749-1.234 2.171-2.216 3.665-1.992.17.027.345.063.507.005.283-.108.368-.458.404-.754.242-2.014-.216-3.938-.225-5.939-.009-2.628 2.548-.623 3.329.346.605.753 1.099 1.592 1.718 2.332.071.085.179.18.282.139.103-.04.117-.184.117-.296.004-.538.17-1.076.466-1.525.323-.489.794-.866 1.176-1.314 1.139-1.328.659-3.728 1.534-5.343.834-1.543 2.364-2.902 4.239-2.516 3.095.637 3.539 4.889 2.929 7.989-.278 1.417-.467 3.229.762 3.983 1.306.798 8.573-5.185 11.076-6.764 1.148-.723 2.727-1.377 3.759-.498.995.852.663 2.453.139 3.656-.601 1.377 2.211 2.301 2.915 3.189 2.602 3.27 1.185 8.828-.569 12.116-1.835 3.44-4.549 6.455-7.429 9.052-2.359 2.13 2.903 7.154.835 9.595-3.342 3.934-17.014 3.615-22.294 3.113-4.49-.431-7.052-4.293-8.837-8.034a48.937 48.937 0 01-.964-2.162z"/>
  <path fill="#fff" d="M548.926 373.645a.839.839 0 01-.714-1.283l15.337-24.586a.844.844 0 011.157-.269.837.837 0 01.269 1.157l-15.336 24.586a.855.855 0 01-.713.395z"/>
  <path fill="#fff" d="M560.234 355.505a.845.845 0 01-.83-.709.838.838 0 01.7-.96l8.406-1.337a.833.833 0 01.964.7.837.837 0 01-.699.96l-8.406 1.337c-.045.009-.09.009-.135.009zM519.284 376.202a.844.844 0 01-.794-.566l-24.307-70.478a.836.836 0 01.52-1.068.839.839 0 011.068.52l24.307 70.479a.836.836 0 01-.794 1.113z"/>
  <path fill="#fff" d="M509.344 349.054c-.027 0-.058 0-.085-.004l-15.821-1.583a.842.842 0 01-.754-.92.85.85 0 01.92-.754l15.821 1.584a.84.84 0 01-.081 1.677zM502.795 328.277a.868.868 0 01-.152-.014l-13.417-2.471a.837.837 0 01-.673-.978.835.835 0 01.978-.673l13.417 2.472a.838.838 0 01-.153 1.664zM506.056 337.688a.85.85 0 01-.574-.224.847.847 0 01-.041-1.189l11.125-11.883a.847.847 0 011.189-.04.847.847 0 01.04 1.189l-11.124 11.882a.848.848 0 01-.615.265z"/>
  <g>
    <path fill="#EAEBED" d="M129.731 298.766H32.168c-11.093 0-20.168-9.075-20.168-20.168V39.79c0-11.093 9.075-20.167 20.168-20.167h97.563c11.093 0 20.167 9.074 20.167 20.167v238.804c0 11.093-9.074 20.172-20.167 20.172z"/>
    <path fill="#fff" d="M120.979 272.722H40.914c-11.093 0-20.167-9.074-20.167-20.168V49.174c0-11.093 9.075-20.167 20.167-20.167h80.065c11.093 0 20.168 9.074 20.168 20.167v203.38c.004 11.089-9.075 20.168-20.168 20.168z"/>
    <path fill="#E3E5FC" d="M93.94 26.005H67.958a1.15 1.15 0 01-1.149-1.148 1.15 1.15 0 011.148-1.148H93.94a1.15 1.15 0 011.149 1.148c0 .633-.52 1.148-1.148 1.148z"/>
    <path fill="#CFCFCF" d="M80.95 292.037a7.155 7.155 0 100-14.31 7.155 7.155 0 000 14.31z"/>
    <path fill="#FFD803" d="M111.712 243.641h-61.53c-6.984 0-12.703-5.715-12.703-12.703 0-6.984 5.715-12.704 12.703-12.704h61.53c6.984 0 12.704 5.715 12.704 12.704 0 6.984-5.715 12.703-12.704 12.703z"/>
    <path fill="#CFCFCF" d="M125.357 68.687h-37.07a3.08 3.08 0 01-3.072-3.073 3.08 3.08 0 013.073-3.073h37.069a3.08 3.08 0 013.073 3.073 3.08 3.08 0 01-3.073 3.073zM125.357 82.763h-37.07a3.08 3.08 0 01-3.072-3.073 3.08 3.08 0 013.073-3.073h37.069a3.08 3.08 0 013.073 3.073 3.084 3.084 0 01-3.073 3.073z"/>
    <path fill="#E3E5FC" d="M80.42 199.668a.919.919 0 01-.13-1.292l8.429-10.348a.919.919 0 111.422 1.161l-8.429 10.349a.923.923 0 01-1.292.13z"/>
    <path fill="#E3E5FC" d="M81.474 199.668a.918.918 0 00.13-1.292l-8.428-10.348a.918.918 0 00-1.422 1.162l8.428 10.348a.921.921 0 001.292.13z"/>
    <path fill="#E3E5FC" fill-rule="evenodd" d="M47.908 62.829H66.236v-1.683c0-6.544-4.109-11.869-9.164-11.869-5.056 0-9.164 5.325-9.164 11.87v1.682zm14.842-3.36H51.388c.547-3.84 2.93-6.832 5.68-6.827 2.753 0 5.135 2.987 5.682 6.827z" clip-rule="evenodd"/>
    <path fill="#EAEBED" d="M49.325 58.958c-2.862 0-5.203 1.83-5.203 4.064L39.25 91.605c0 2.233 2.342 4.063 5.204 4.063h21.19l-5.688-36.71h-10.63z"/>
    <path fill="#CFCFCF" d="M73.382 91.6l-4.177-28.583c0-2.234-2.341-4.064-5.203-4.064h-4.05l5.687 36.71h2.535c2.866 0 5.207-1.825 5.207-4.063zM125.357 134.523h-37.07a3.08 3.08 0 01-3.072-3.073 3.08 3.08 0 013.073-3.073h37.069a3.08 3.08 0 013.073 3.073 3.084 3.084 0 01-3.073 3.073zM125.357 148.594h-37.07a3.08 3.08 0 01-3.072-3.072 3.08 3.08 0 013.073-3.073h37.069a3.08 3.08 0 013.073 3.073 3.08 3.08 0 01-3.073 3.072z"/>
    <g>
      <path fill="#E3E5FC" fill-rule="evenodd" d="M47.907 128.66h18.329v-1.682c0-6.545-4.109-11.869-9.164-11.869-5.056 0-9.165 5.324-9.165 11.869v1.682zm14.843-3.36H51.388c.547-3.839 2.93-6.827 5.679-6.827 2.754 0 5.136 2.988 5.683 6.827z" clip-rule="evenodd"/>
      <path fill="#FFF3B3" d="M49.325 124.789c-2.862 0-5.203 1.83-5.203 4.064l-4.872 28.583c0 2.233 2.342 4.064 5.203 4.064h21.19l-5.687-36.711H49.325z"/>
      <path fill="#B8A53A" d="M73.381 157.436l-4.176-28.583c0-2.234-2.341-4.064-5.203-4.064h-4.05l5.687 36.711h2.535c2.866 0 5.207-1.831 5.207-4.064z"/>
    </g>
    <path fill="#FFD803" d="M71.834 99.656a7.285 7.285 0 100-14.57 7.285 7.285 0 000 14.57zM71.834 166.479a7.285 7.285 0 100-14.57 7.285 7.285 0 000 14.57z"/>
    <path fill="#727272" d="M80.95 213.775c-2.697 0-4.904-2.207-4.904-4.902 0-2.696 2.207-4.903 4.903-4.903 2.696 0 4.903 2.207 4.903 4.903 0 2.7-2.207 4.902-4.903 4.902z"/>
  </g>
  <g>
    <path fill="#EAC2AB" d="M233.785 154.269c12.739-14.341 40.631-44.521 52.092-59.844.601-.803 1.215-1.65 1.337-2.633.152-1.242-.507-2.422-1.046-3.561a20.49 20.49 0 01-1.969-8.577c-.013-1.462.157-3 1.014-4.208.857-1.202 2.575-1.928 3.929-1.287a31.257 31.257 0 002.485 13.92c1.216-1.93 2.432-3.854 3.643-5.783 1.238 6.432-4.037 12.084-6.863 18.023-1.431 3.01-19.845 24.097-21.747 26.852-10.59 15.327-13.318 21.078-23.855 30.646-2.794 2.539-5.687 5.14-9.258 6.473-3.571 1.336-8.034 1.121-10.743-1.508l10.981-8.513zM368.534 245.525l10.618 20.872-6.899 4.732-9.73-22.522c-.004 0 3.427-3.1 6.011-3.082z"/>
    <path fill="#FDC510" d="M410.511 276.795s-5.957 1.857-17.368 2.566c-11.412.708-26.605-.687-29.292-1.642-4.086-1.449-.951-14.013 2.853-13.986 3.804.026 5.275 5.185 11.99.641 5.751-3.894 10.331 3.557 20.334 5.607 10.003 2.05 14.054 2.875 11.483 6.814z"/>
    <path fill="#727272" d="M345.954 235.984c1.3 3.028 2.233 6.222 3.808 9.12 2.211 4.073 5.791 8.038 5.064 12.613-.269 1.714-.951 3.925.529 4.827 1.104.673 2.539-.099 3.401-1.063 1.861-2.091 2.704-5.244 5.239-6.428 2.265-1.059 4.961-.09 7.415-.556 4.122-.785 6.719-5.392 10.855-6.114-.081-1.167-1.503-1.611-2.57-2.086-2.257-1.005-3.696-3.207-5.002-5.302-4.701-7.541-9.312-15.193-12.596-23.447-.695-1.74-1.332-3.521-2.337-5.1-.892-1.413-2.054-2.633-3.265-3.786a49.187 49.187 0 00-7.868-6.083c-3.826-2.386-8.989-4.463-13.282-2.009-3.396 1.942-6.19 6.93-5.54 10.869.727 4.405 4.979 7.921 7.662 11.191 3.35 4.096 6.392 8.483 8.487 13.354z"/>
    <path fill="#EAC2AB" d="M394.731 202.597l24.985 3.073-.184 8.612-25.873-4.781c0-.005-.566-4.719 1.072-6.904z"/>
    <path fill="#FFF3B3" d="M437.896 177.083s.247 6.455-2.234 17.956c-2.48 11.501-5.75 24.187-8.06 25.99-2.31 1.803-16.687-.826-15.588-4.58 1.099-3.755 6.859-3.647 4.042-11.663-2.414-6.867 6.598-9.137 11.541-18.409 4.948-9.272 6.939-13.026 10.299-9.294z"/>
    <path fill="#B7B7B7" d="M283.939 214.978c-6.953 2.323-9.402 9.402-11.694 16.368a53.93 53.93 0 00-2.682 15.668c-.068 3.006.291 6.375 2.579 8.321 1.265 1.072 2.933 1.534 4.571 1.808 11.788 1.987 23.639-4.172 32.184-12.528 8.546-8.357 14.655-18.836 21.94-28.314 3.247-4.226 7.347-8.586 12.667-8.913 6.051-.372 10.95 4.535 16.386 7.213 5.832 2.871 12.323 4.521 18.733 5.463 6.616.969 10.276 1.333 16.623 3.872 2.477.991 5.096 4.602 7.406 5.252 6.926 1.952 2.333-1.789 3.306-3.57 1.252-2.283 2.301-6.065 1.678-8.205-1.081-3.691-1.503-7.791-1.355-11.631.094-2.463 2.144-4.216 3.297-6.302 2.31-5.042-12.649-2.992-18.817-3.252-7.195-.301-14.265-1.979-21.199-3.925a268.918 268.918 0 01-23.012-7.595c-5.472-2.081-11.237-4.387-17.001-3.377-7.872 1.377-13.268 8.361-18.938 13.991-6.572 6.526-10.891 10.173-19.454 13.699"/>
    <g>
      <path fill="#D4A79A" d="M213.375 148.948l3.983 12.542 10.712 2.355-3.221-5.253s-5.27-8.742-3.364-14.246c1.906-5.504-8.11 4.602-8.11 4.602z"/>
      <path fill="#EAC2AB" d="M216.52 111.264c2.83.615 7.598 3.75 8.455 6.514.57 1.83 1.162 3.781 2.382 5.302 1.552 1.942 3.75 2.866 5.782 4.167 1.996 1.278-.79 1.821-1.66 3.014-.973 1.337-1.045 2.858-1.184 4.526-.283 3.436.462 9.909-1.615 12.753-2.799 3.831-13.165 2.283-16.525.399-.668-.372-8.388-4.526-8.209-4.988l12.574-31.687z"/>
      <path fill="#272343" d="M198.182 113.96c.574-.754.054-1.826.121-2.772.086-1.211 1.14-2.108 2.149-2.786 5.549-3.741 12.43-5.463 19.086-4.781 2.656.273 1.956.933 4.226 2.341 2.898 1.794 6.522 8.429 2.279 11.107-4.482 2.83-9.788-.135-5.316.538-2.615-.39-3.858 1.839-5.275 3.979-5.414 8.168-4.876 18.292-2.072 27.362-14.987-4.122-24.241-15.354-20.388-27.228 1.66-5.113 5.737-12.452 1.301-17.256-2.794-3.023-7.388-3.557-11.483-3.145-3.952.4-8.021 1.611-10.779 4.473-4.329 4.499-4.194 11.761-2.1 17.642 2.095 5.88 5.796 11.079 7.94 16.942 1.723 4.715 1.776 11.156-2.66 13.498-4.001 2.108-8.689-.561-12.981-1.983-5.379-1.781-11.847-1.319-15.992 2.539-4.149 3.857-4.647 11.497-.13 14.919-2.261 1.646-3.355 4.737-2.638 7.442.723 2.7 3.212 4.84 5.993 5.14 3.795.413 7.487-2.287 11.246-1.619 2.113.377 3.88 1.763 5.818 2.687 1.938.924 4.472 1.31 6.055-.139.88-.803 1.265-1.996 1.777-3.068 2.718-5.675 9.384-8.465 12.663-13.834 6.356-10.411-.184-26.309-.951-37.42-.251-3.651.072-7.818 2.893-10.151 2.57-2.121 5.652-3.732 8.474-5.495.242.355.493.714.744 1.068z"/>
      <path fill="#EAC2AB" d="M212.971 133.029s-6.441-1.696-5.8 3.252c.642 4.948 6.81 5.674 6.81 5.674l-1.575-5.786.565-3.14z"/>
      <path fill="#F44E4E" d="M199.474 109.156s1.579.834.597 3.212c-.983 2.382-5.67 7.818-5.917 6.15-.247-1.669-3.607-.301-2.068-2.683 1.539-2.382 1.189-1.588 2.889-4.306 1.633-2.611-.229-3.723.735-4.8 1.692-1.879 2.988 1.467 3.764 2.427z"/>
    </g>
    <path fill="#FFF3B3" d="M231.165 158.418c8.936 2.548 7.751 3.068 14.498 9.46 5.728 5.432 13.416 17.642 16.386 24.958 1.875 4.621 7.594 9.025 10.2 13.287 2.162 3.535 8.142 2.27 10.156 5.899.292.52.592 1.058 1.063 1.421.848.655-1.323 1.952-.305 2.293 1.216.408 4.279 5.517 4.939 6.616 1.292 2.167-.382-.117-.525 2.418-.193 3.404.749 4.405-.969 6.89-2.162 3.126-3.059 6.917-3.925 10.559-.736 3.104-1.041 7.262-3.342 9.617-2.247 2.301-5.732 2.974-8.935 2.714-6.361-.52-12.775-3.875-16.808-8.832-4.854-5.971-5.423-13.838-9.321-20.253-3.571-5.876-8.958-10.272-13-15.781-4.234-5.773-6.939-12.443-9.639-19.023-3.1-7.55-7.115-14.332-6.482-22.792.287-3.826 1.26-7.783 3.84-10.617 2.583-2.831 8.482.116 12.169 1.166z"/>
    <g>
      <path fill="#EAC2AB" d="M283.257 215.296c2.97-1.211 7.55-5.41 9.285-7.065-1.798.722-3.135 2.167-5.207 1.575a757.958 757.958 0 01-8.985-2.598c-27.946-11.196-38.142-29.78-38.142-29.78s3.669 3.934-7.141-5.881c-10.81-9.814-7.845-1.251-7.845-1.251s7.989 12.277 20.858 26.12c12.869 13.843 29.686 17.099 29.686 17.099 2.122.557 4.252 1.09 6.379 1.534.39.072.749.157 1.112.247z"/>
      <path fill="#FFD803" d="M243.999 173.422s-15.741-23.267-22.689-13.766 14.879 31.799 14.879 31.799l11.183-15.754-3.373-2.279z"/>
    </g>
  </g>
  <g>
    <path fill="#EAEBED" d="M233.265 15.917h-45.422a2.541 2.541 0 01-2.535-2.534v-2.849A2.54 2.54 0 01187.843 8h45.422a2.54 2.54 0 012.534 2.534v2.849a2.54 2.54 0 01-2.534 2.534zM233.265 29.352h-45.422a2.541 2.541 0 01-2.535-2.535V23.97a2.54 2.54 0 012.535-2.534h45.422a2.54 2.54 0 012.534 2.534v2.848a2.54 2.54 0 01-2.534 2.535zM233.265 42.786h-45.422a2.54 2.54 0 01-2.535-2.534v-2.849a2.541 2.541 0 012.535-2.534h45.422a2.54 2.54 0 012.534 2.535v2.848a2.54 2.54 0 01-2.534 2.534zM233.265 56.22h-45.422a2.54 2.54 0 01-2.535-2.533v-2.849a2.541 2.541 0 012.535-2.534h45.422a2.54 2.54 0 012.534 2.534v2.849a2.54 2.54 0 01-2.534 2.534z"/>
    <g>
      <path fill="#E3E5FC" d="M179.056 255.851c-5.679 0-10.326-4.647-10.326-10.326 0-5.678 4.647-10.326 10.326-10.326 5.678 0 10.326 4.648 10.326 10.326 0 5.679-4.648 10.326-10.326 10.326z"/>
      <path fill="#E3E5FC" fill-rule="evenodd" d="M183.676 233.199c1.161.435 2.31.65 3.409.65 1.507 0 2.929-.408 4.158-1.215 4.23-2.759 4.764-9.465 1.184-14.946l-.919-1.409-15.341 10.026.919 1.408c1.682 2.575 4.024 4.522 6.59 5.486zm1.179-3.149c-1.444-.543-2.803-1.525-3.943-2.835l9.523-6.217c1.638 3.517 1.279 7.316-1.027 8.823-1.215.794-2.835.875-4.553.229z" clip-rule="evenodd"/>
      <path fill="#EAEBED" d="M192.441 220.298c2.395-1.565 3.355-4.378 2.135-6.248l-11.546-26.596c-1.22-1.871-4.181-2.122-6.581-.556l-17.741 11.586 24.833 27.627 8.9-5.813z"/>
      <path fill="#CFCFCF" d="M154.447 206.114l19.123 21.648c1.22 1.871 4.18 2.122 6.58.556l3.391-2.211-24.832-27.627-2.122 1.386c-2.4 1.565-3.36 4.378-2.14 6.248z"/>
      <path fill="#E3E5FC" fill-rule="evenodd" d="M192.243 194.272l.489 1.606 22.487-6.854-.489-1.606c-1.171-3.844-3.391-7.141-6.248-9.276-3.019-2.252-6.388-2.97-9.483-2.028-3.095.947-5.491 3.423-6.738 6.971-1.184 3.369-1.188 7.343-.018 11.187zm7.738-14.941a5.85 5.85 0 011.723-.256c1.565 0 3.211.601 4.763 1.758 1.898 1.418 3.454 3.504 4.482 5.98l-15.902 4.844c-.525-2.624-.399-5.226.386-7.459.883-2.512 2.498-4.244 4.548-4.867z" clip-rule="evenodd"/>
      <path fill="#FFF3B3" d="M192.652 191.06c-3.688 1.122-5.984 4.396-5.11 7.276l4.939 38.725c.879 2.88 4.611 4.315 8.299 3.194l27.29-8.312-21.728-45.05-13.69 4.167z"/>
      <path fill="#FFD803" d="M236.445 223.671l-16.592-35.176c-.88-2.88-4.612-4.315-8.299-3.194l-5.217 1.588 21.729 45.049 3.265-.995c3.692-1.122 5.989-4.396 5.114-7.272zM253.715 277.89h-71.609c-5.679 0-10.326-4.648-10.326-10.326 0-5.679 4.647-10.326 10.326-10.326h71.609c5.679 0 10.326 4.647 10.326 10.326 0 5.678-4.647 10.326-10.326 10.326z"/>
      <path fill="#CFCFCF" d="M233.677 254.86h-31.538c-5.679 0-10.326-4.647-10.326-10.326s4.647-10.326 10.326-10.326h31.538c5.679 0 10.326 4.647 10.326 10.326.005 5.679-4.647 10.326-10.326 10.326zM301.828 277.562h-21.944c-5.678 0-10.326-4.647-10.326-10.326s4.648-10.326 10.326-10.326h21.944c5.679 0 10.326 4.647 10.326 10.326.005 5.679-4.642 10.326-10.326 10.326z"/>
      <g>
        <path fill="#727272" d="M212.904 375.094c5.978 0 10.824-4.846 10.824-10.824s-4.846-10.824-10.824-10.824-10.824 4.846-10.824 10.824 4.846 10.824 10.824 10.824z"/>
        <path fill="#EAEBED" d="M212.904 371.923a7.653 7.653 0 100-15.306 7.653 7.653 0 000 15.306z"/>
        <path fill="#727272" d="M289.591 375.094c5.978 0 10.824-4.846 10.824-10.824s-4.846-10.824-10.824-10.824-10.824 4.846-10.824 10.824 4.846 10.824 10.824 10.824z"/>
        <path fill="#EAEBED" d="M289.591 371.923a7.653 7.653 0 100-15.306 7.653 7.653 0 000 15.306z"/>
        <g>
          <path fill="#727272" d="M201.991 350.082c-1.687 0-20.697-.345-24.564-15.534-1.449-5.688-4.661-23.254-8.375-43.596-5.261-28.794-12.47-68.232-14.74-72.538-3.48-6.603-6.495-7.904-17.826-7.702-11.398.193-53.469-.013-53.895-.018l.018-3.36c.422 0 42.452.211 53.819.018 11.604-.188 16.489 1.207 20.858 9.497 2.328 4.422 7.716 33.252 15.072 73.497 3.705 20.28 6.908 37.792 8.326 43.372 3.319 13.04 21.194 12.995 21.383 13.004h110.092v3.36H201.991z"/>
          <path fill="#727272" d="M316.218 280.388H168.882v-3.36h144.739l14.78-56.546H156.268v-3.36h176.489l-16.539 63.266z"/>
          <path fill="#727272" d="M195.731 219.199l3.252-.844 15.547 59.902-3.252.844zM241.743 218.804h3.36v58.758h-3.36zM272.536 278.27l15.534-59.909 3.253.844-15.535 59.908z"/>
          <path fill="#727272" d="M161.454 237.16h162.727v3.36H161.454zM165.329 257.332h154.738v3.36H165.329z"/>
        </g>
      </g>
    </g>
  </g>
  <g clip-path="url(#clip0_2:173)">
    <path fill="#FFD803" d="M312.152 48.574h-5.648a1.289 1.289 0 01-1.292-1.287v-4.862c0-.712.579-1.287 1.292-1.287h5.648c.715 0 1.292.577 1.292 1.287v4.862a1.29 1.29 0 01-1.292 1.287z"/>
    <path fill="#FFD803" d="M297.238 39.02c.685 0 2.589.847 5.477 3.784-.524.02-1.036.03-1.533.03a27.331 27.331 0 01-3.229-.175c-1.551-.187-1.757-1.793-1.774-1.975a2.13 2.13 0 01.108-.914c.097-.258.278-.547.87-.742a.46.46 0 01.081-.008zm.002-2.02a2.278 2.278 0 00-.72.11c-2.462.814-2.429 3.097-2.361 3.776.17 1.688 1.335 3.512 3.55 3.779 1.154.132 2.314.195 3.473.19 1.754 0 3.44-.12 4.757-.253a.52.52 0 00.445-.33.508.508 0 00-.086-.536C302.66 39.435 299.36 37 297.24 37zM321.326 39.02c.027 0 .053.003.08.008.592.197.773.484.873.742.103.294.138.607.108.914-.017.182-.223 1.785-1.774 1.975-1.071.123-2.15.18-3.229.175-.497 0-1.009-.01-1.533-.03 2.885-2.934 4.79-3.784 5.475-3.784zm0-2.02c-2.12 0-5.42 2.435-9.058 6.736a.508.508 0 00-.086.537.514.514 0 00.444.33c1.318.132 3.004.252 4.76.252a29.324 29.324 0 003.473-.19c2.216-.267 3.38-2.09 3.551-3.779.067-.68.1-2.962-2.362-3.776a2.277 2.277 0 00-.722-.11zM329.255 49.258h-39.51V83h39.51V49.258z"/>
    <path fill="#fff" d="M313.402 49.325h-7.806V83h7.806V49.325z"/>
    <path fill="#000" d="M329.255 49.258h-39.51v7.013h39.51v-7.013z" opacity=".19"/>
    <path fill="#FFD803" d="M332 44.07h-45v6.971h45v-6.97z"/>
    <path fill="#fff" d="M315.166 44.07h-11.332v6.971h11.332v-6.97z"/>
  </g>
  <defs>
    <clipPath id="clip0_2:173">
      <path fill="#fff" d="M0 0h45v46H0z" transform="translate(287 37)"/>
    </clipPath>
  </defs>
</svg>
