<svg xmlns="http://www.w3.org/2000/svg" width="427" height="322" fill="none" viewBox="0 0 427 322">
  <g clip-path="url(#clip0_2:2)">
    <path fill="#fff" d="M0 0h427v321.555H0z"/>
    <path fill="#EAEBED" d="M276.199 146.377s20.843 33.403 40.762 51.806c19.919 18.402 43.104 37.255 29.062 71.874-14.041 34.619-55.427 48.797-129.435 46.988-74.008-1.809-100.139-2.203-116.369-38.918-16.231-36.714 37.788-44.948 74.687-56.111 36.899-11.162 101.293-75.639 101.293-75.639z"/>
    <path fill="url(#paint0_linear_2:2)" d="M279.758 219.297s10.151 39.183-26.04 48.483c-36.192 9.305-103.723 7.935-129.146-10.168-25.424-18.103 155.186-38.315 155.186-38.315z" opacity=".49"/>
    <path fill="#FFF3B3" d="M373.974 287.128c3.584-2.207 5.292-7.042 3.891-11.009-2.294-6.484-8.224-4.298-12.438-7.704-4.965-4.009 1.038-10.315.707-15.049-.362-5.208-5.051-10.239-6.463-15.272-3.238-11.57 9.914-2.936 13.665-4.285 1.569-.564 2.597-2.14 2.96-3.771.92-4.159-.83-7.52 1.447-11.455 2.199-3.8 5.448-5.515 4.51-10.675-.529-2.921-2.332-5.598-2.286-8.568.014-.851.254-1.806.997-2.221.564-.317 1.269-.23 1.879-.017 2.025.711 3.357 2.6 4.988 3.998 1.632 1.398 4.253 2.263 5.818.792 1.043-.98 1.144-2.563 1.356-3.978.38-2.552 2.172-4.323 4.396-2.848 2.423 1.607 1.496 7.934 1.13 10.203-.579 3.598-1.458 7.335-.387 10.821 1.767 5.766 6.599-.694 8.704-2.604 1.726-1.565 4.609-2.503 6.265-.868 3.297 3.252-2.005 7.599-2.702 10.681-.335 1.468.097 3.225 1.401 3.978 3.817 2.21 7.042-1.729 7.621 4.151.397 4.03-3.249 7.872-.987 11.902 1.977 3.52 8.555 5.016 5.954 9.956-1.596 3.032-8.471 2.897-8.108 7.212.237 2.813 4.465 4.089 4.469 6.913.003 2.126-2.472 3.381-4.595 3.489-2.123.108-4.361-.387-6.316.443-2.221.941-3.507 3.671-2.821 5.986.6 2.011 2.472 3.841 1.883 5.856-.708 2.423-4.065 2.51-6.557 2.123-10.186-1.593-21.094-2.656-30.381 1.82z"/>
    <path fill="#fff" d="M393.21 286.124a.651.651 0 01-.652-.652v-45.447a.65.65 0 111.304 0v45.443a.652.652 0 01-.652.656z"/>
    <path fill="#fff" d="M393.21 268.436a.654.654 0 01-.505-1.067l11.918-14.693a.654.654 0 111.015.826l-11.919 14.693a.662.662 0 01-.509.241zM393.21 256.026a.644.644 0 01-.422-.154l-14.205-11.953a.657.657 0 01-.08-.921.656.656 0 01.92-.08l14.206 11.954a.656.656 0 01-.419 1.154z"/>
    <g>
      <path fill="#CFCFCF" d="M371.988 280.759c1.868 12.421 3.552 25.413 6.696 37.398.262.997.568 2.043 1.203 2.684.749.757 1.767.771 2.705.75 5.424-.126 10.859.223 16.283.191 5.128-.028 9.363.387 9.9-8.129.185-2.953.652-32.897 3.375-32.897-.011.003-40.162.003-40.162.003z"/>
      <path fill="#EAEBED" d="M408.482 288.18h-32.827c-4.082 0-7.425-3.339-7.425-7.425 0-4.082 3.339-7.425 7.425-7.425h32.827c4.083 0 7.426 3.34 7.426 7.425 0 4.086-3.343 7.425-7.426 7.425z"/>
    </g>
    <g>
      <path fill="#272343" d="M250.239 15.506s4.302 9.558-2.419 15.443c-6.722 5.884-15.858 1.227-24.727 6.616-8.868 5.39-7.913 11.776-3.845 25.995 4.839 16.914 10.124 16.409 14.875 17.632 4.751 1.227 6.17 14.464 6.707 20.592.537 6.129 1.342 10.294-15.589 18.629-16.932 8.335-7.694 21.084-5.996 37.607 1.879 18.277-19.808 28.819-23.569 33.232-3.761 4.414-12.633 5.149-17.472-4.165-4.838-9.315 19.748-16.172 17.601-31.123-2.151-14.952-15.279-25.012 3.266-39.72 18.546-14.707 14.882-26.47 8.701-38.478-6.18-12.01-9.136-16.667-4.033-32.11 5.104-15.443-.268-10.786 6.449-23.042 6.725-12.254 31.182-25.738 40.051-7.108z"/>
      <path fill="#D4A79A" d="M238.543 88.053l1.349 25.165 19.7 7.596s-11.846-17.332-9.838-32.765c2.008-15.429-11.211.004-11.211.004z"/>
      <path fill="#FFD803" d="M284.196 169.691s-1.307-2.395-5.226-14.693c-3.918-12.299-5.333-16.872-10.775-28.774-5.442-11.901-16.764-19.336-16.764-19.336l-14.15-.764s-1.743.108-9.903 6.857c-8.165 6.749-16.001 26.016-16.001 26.016l-3.483 38.315 24.493 18.068 17.311 6.24c-.833-1.112-1.506-2.291-1.924-3.539-2.9-8.621 6.819-56.365 7.146-60.611.328-4.246 8.552 36.248 8.552 36.248l7.121-2.068 4.888 15.572 3.057-15.899 5.658-1.632z"/>
      <path fill="url(#paint1_linear_2:2)" d="M276.467 190.374l-.99-3.151-1.579 8.213 2.569-5.062z"/>
      <path fill="#FDC510" d="M263.465 173.718s-8.224-40.494-8.552-36.248c-.327 4.246-10.046 51.99-7.146 60.611.418 1.248 1.091 2.427 1.924 3.539l17.81 6.417 6.397-12.605 1.579-8.213-4.887-15.572-7.125 2.071z"/>
      <path fill="#C7A800" d="M263.465 173.718s-8.224-40.494-8.552-36.248c-.327 4.246-10.046 51.99-7.146 60.611.418 1.248 1.091 2.427 1.924 3.539l17.81 6.417 6.397-12.605 1.579-8.213-4.887-15.572-7.125 2.071z"/>
    </g>
    <g>
      <path fill="#B7B7B7" d="M119.137 158.491l100 4.825 19.406 18.796-93.404-2.353-26.002-21.268z"/>
      <path fill="#EAEBED" d="M213.433 166.349l-90.28-6.097c-2.44.188-4.556-1.454-4.727-3.675l-18.193-48.811c-.171-2.217 1.666-4.169 4.103-4.357l90.28 6.1c2.44-.188 4.556 1.454 4.727 3.675l18.193 48.811c.175 2.213-1.666 4.165-4.103 4.354z"/>
      <path fill="#CFCFCF" d="M168.141 138.975c1.073-4.935-2.724-9.95-8.481-11.201-5.757-1.252-11.294 1.734-12.366 6.669-1.073 4.935 2.724 9.95 8.481 11.201 5.757 1.251 11.294-1.735 12.366-6.669z"/>
    </g>
    <g>
      <path fill="#D4A79A" d="M77.999 245.167L52.47 282.554l11.622 9.82 24.319-40.591c0-.003-5.575-6.274-10.413-6.616z"/>
      <path fill="#FFD803" d="M.77 303.408s9.82 3.353 28.638 4.748c18.817 1.397 39.82 2.095 43.637-.698 3.817-2.792 6.272-26.535 0-26.535-6.271 0-8.711 9.077-19.772.976-9.475-6.941-17.047 6.146-33.546 9.635-16.5 3.49-23.182 4.891-18.957 11.874z"/>
      <path fill="#727272" d="M236.901 204.74c-2.255-4.243-14.463-1.851-29.094-7.293-14.634-5.441-24.085-16.872-40.709-30.042-16.625-13.17-15.489-10.887-22.663-11.431-7.174-.544-16.056 18.832-21.069 29.066-10.552 21.551-23.907 40.808-43.858 53.336-6.062 3.807-32.771 18.288-37.234 24.353-9.398 12.766 36.81 12.874 48.892 14.349 11.96 1.457 18.667-5.337 23.506-16.074 5.521-12.246 11.563-24.231 17.597-36.216 3.019-5.996 6.052-11.988 9.011-18.016 1.276-2.597 4.037-12.023 7.115-13.198 9.468-3.604 21.965 25.256 24.622 31.74 5.351 13.062 24.939 28.303 39.172 29.826 14.233 1.524 24.939-7.944 29.607-21.77 4.671-13.825-4.895-28.63-4.895-28.63z"/>
      <path fill="#EAC2AB" d="M126.695 248.001l-25.528 37.388 11.623 9.82 24.318-40.591c-.004-.004-5.574-6.275-10.413-6.617z"/>
      <path fill="#FFF3B3" d="M49.466 306.242s9.82 3.353 28.638 4.747c18.817 1.398 39.82 2.096 43.637-.697 3.818-2.792 6.272-26.535 0-26.535-6.271 0-8.711 9.077-19.772.976-9.475-6.941-17.047 6.146-33.546 9.635-16.5 3.49-23.185 4.891-18.957 11.874z"/>
      <path fill="#B7B7B7" d="M273.853 204.74c-2.154-4.243-13.825-1.851-27.811-7.293-13.986-5.441-23.022-16.872-38.914-30.042-15.893-13.17-14.806-10.887-21.662-11.431-6.857-.544-15.349 18.832-20.139 29.066-14.735 31.483-45.06 52.611-72.659 72.049-1.715 1.206-3.64 2.883-3.284 4.95.182 1.053.935 1.904 1.705 2.646 10.238 9.883 29.418 14.328 43.202 13.683 13.878-.649 21.411-12.229 26.654-23.681 9.377-20.487 18.539-41.598 29.931-61.043 4.281-7.3 17.925 22.171 19.11 24.914 7.066 16.385 21.094 34.439 40.249 36.582 13.606 1.524 23.838-7.944 28.303-21.77 4.459-13.825-4.685-28.63-4.685-28.63z"/>
      <path fill="#EAC2AB" d="M220.942 34.483s-10.52 7.76-6.334 25.19c4.187 17.43 17.207 32.316 22.461 31.266 14.526-2.9 19.619-13.166 24.656-21.975 6.177-10.804-6.086-37.158-6.086-37.158l-11.584-6.247-23.113 8.924z"/>
      <g>
        <path fill="#272343" d="M241.907 26.783s7.31 2.45 13.735 12.745c6.425 10.294 2.21 11.974 2.21 25.775 0 4.033-.756 8.007-2.942 11.445-1.586 2.496-3.849 4.462-5.491 6.909-2.074 3.088-2.736 6.574-2.569 10.26.352 7.79 1.597 14.26 8.517 18.66 7.48 4.755 10.97 11.106 12.936 19.689 2.353 10.276 19.295 16.091 25.207 12.169 5.913-3.922-11.723-1.304-8.227-18.214 3.493-16.914 4.693-24.092-5.521-28.791-10.214-4.7-5.334-5.94.041-16.234 5.376-10.294-8.481-10.169-3.012-28.087 6.314-20.682.593-43.732-30.317-37.36-30.911 6.373-4.567 11.034-4.567 11.034z"/>
        <path fill="#272343" d="M234.381 46.465c8.868-5.393 6.721-9.635 13.442-15.516 6.717-5.885 2.419-15.443 2.419-15.443-8.868-18.63-33.326-5.149-40.047 7.108-6.721 12.256-1.342 7.6-6.449 23.042-3.521 10.643-3.207 16.165-.648 22.502l14.456 5.853c-5.853-22.205 10.155-23.492 16.827-27.546z"/>
      </g>
      <path fill="#EAC2AB" d="M270.37 189.719s0 5.985-2.286 4.897c-2.287-1.087-23.73-14.477-26.56-17.632-2.831-3.158-9.472-14.585-9.796-16.872-.328-2.287.764-2.395-3.702-1.743-4.462.652-12.518 3.158-11.319 4.57 1.196 1.415 4.57.436 4.57.436s-3.953 2.503-2.032 2.83c1.921.328 7.582-.763 7.582.98 0 1.743-.328 7.62.979 10.559 1.308 2.939 2.939 3.918 7.185 4.898 4.246.98 4.995.652 8.485 4.246 3.489 3.594 22.973 20.898 25.476 21.77 2.503.871 3.59 2.395 6.64-3.158 3.051-5.554 5.226-9.796 5.442-18.504.216-8.708-.763-17.088-.763-17.088l-9.688 1.743c.007 0 .875 9.795-.213 18.068z"/>
    </g>
    <g>
      <path fill="#EAEBED" d="M301.71 79.146c1.736-7.955 5.612-15.886 8.457-23.523 1.513-4.058 4.835-9.531 5.173-13.878.112-1.426 1.471-2.482 3.036-2.36l57.986-3.918c1.566.122 2.747 1.373 2.636 2.799l-11.685 31.35c-.112 1.425-1.471 2.481-3.037 2.36l-46.764 2.987c-2.866 1.74-7.411 3.479-10.28 5.212-3.183 1.92-7.115 6.27-5.522-1.029z"/>
      <path fill="#fff" d="M343.674 59.185l18.842-.819a2.31 2.31 0 002.203-2.405 2.31 2.31 0 00-2.405-2.203l-18.842.819a2.31 2.31 0 00-2.203 2.405 2.316 2.316 0 002.405 2.203zM330.124 51.38l34.135-1.482a2.31 2.31 0 002.203-2.405 2.31 2.31 0 00-2.405-2.203l-34.135 1.482a2.31 2.31 0 00-2.203 2.405 2.313 2.313 0 002.405 2.203z"/>
      <path fill="#EAEBED" d="M131.956 86.271c-2.008-9.21-6.495-18.388-9.793-27.229-1.75-4.696-5.598-11.03-5.989-16.063-.129-1.65-1.701-2.873-3.513-2.73l-67.12-4.535c-1.813.14-3.18 1.59-3.05 3.238l13.526 36.29c.128 1.648 1.7 2.872 3.513 2.73l54.131 3.46c3.319 2.012 8.576 4.03 11.901 6.035 3.685 2.22 8.238 7.258 6.394-1.196z"/>
      <path fill="#fff" d="M83.382 63.166l-21.809-.948a2.68 2.68 0 01-2.551-2.785 2.68 2.68 0 012.785-2.552l21.808.948a2.679 2.679 0 012.552 2.785 2.681 2.681 0 01-2.785 2.552zM99.065 54.134L59.551 52.42A2.68 2.68 0 0157 49.634a2.68 2.68 0 012.785-2.552L99.3 48.797a2.68 2.68 0 012.552 2.785 2.682 2.682 0 01-2.786 2.552z"/>
      <g opacity=".72">
        <path fill="#EAEBED" d="M168.806 32.549c-1.293-5.93-4.183-11.839-6.303-17.531-1.126-3.023-3.604-7.101-3.855-10.343-.084-1.063-1.095-1.848-2.263-1.757L113.169 0c-1.168.09-2.046 1.025-1.966 2.085l8.708 23.363c.084 1.063 1.095 1.847 2.263 1.757l34.853 2.227c2.137 1.297 5.521 2.594 7.662 3.884 2.374 1.432 5.302 4.674 4.117-.767z"/>
        <path fill="#fff" d="M137.529 17.67l-14.041-.61a1.723 1.723 0 01-1.642-1.791 1.723 1.723 0 011.792-1.642l14.041.61a1.723 1.723 0 011.642 1.792 1.723 1.723 0 01-1.792 1.642zM147.628 11.856l-25.44-1.105a1.723 1.723 0 01-1.642-1.792 1.722 1.722 0 011.791-1.642l25.441 1.105a1.723 1.723 0 011.642 1.792 1.723 1.723 0 01-1.792 1.642z"/>
      </g>
      <g>
        <path fill="#EAEBED" d="M171.438 66.352l-21.809-.948a2.679 2.679 0 01-2.551-2.785 2.678 2.678 0 012.785-2.552l21.808.948a2.679 2.679 0 012.552 2.786 2.683 2.683 0 01-2.785 2.551zM173.613 77.01l-21.808-.949a2.679 2.679 0 01-2.552-2.785 2.68 2.68 0 012.785-2.552l21.809.948a2.679 2.679 0 012.551 2.785 2.678 2.678 0 01-2.785 2.552zM177.479 87.952l-21.808-.948a2.679 2.679 0 01-2.552-2.786 2.68 2.68 0 012.785-2.552l21.809.949a2.679 2.679 0 012.551 2.785 2.678 2.678 0 01-2.785 2.552z"/>
      </g>
    </g>
  </g>
  <defs>
    <linearGradient id="paint0_linear_2:2" x1="292.423" x2="290.591" y1="264.329" y2="207.247" gradientUnits="userSpaceOnUse">
      <stop stop-color="#CFCFCF"/>
      <stop offset="1" stop-color="#fff"/>
    </linearGradient>
    <linearGradient id="paint1_linear_2:2" x1="287.105" x2="242.931" y1="156.553" y2="140.932" gradientUnits="userSpaceOnUse">
      <stop stop-color="#A7ADFF"/>
      <stop offset="1" stop-color="#E3E5FC"/>
    </linearGradient>
    <clipPath id="clip0_2:2">
      <path fill="#fff" d="M0 0h427v321.555H0z"/>
    </clipPath>
  </defs>
</svg>
