<svg xmlns="http://www.w3.org/2000/svg" width="220" height="225" fill="none" viewBox="0 0 220 225">
  <g clip-path="url(#clip0_8:295)">
    <path fill="#FFD803" d="M122.967 56.582H95.353c-3.496 0-6.317-2.82-6.317-6.288V26.521c0-3.48 2.833-6.289 6.317-6.289h27.614c3.496 0 6.317 2.821 6.317 6.289v23.773c0 3.468-2.834 6.288-6.317 6.288z"/>
    <path fill="#FFD803" d="M50.05 9.878c3.35 0 12.66 4.139 26.78 18.498-2.564.098-5.067.147-7.496.147-5.275.024-10.55-.257-15.788-.855-7.58-.916-8.587-8.767-8.673-9.658-.147-1.514.025-3.04.528-4.47.478-1.257 1.361-2.673 4.257-3.626.134-.024.27-.036.392-.036zM50.062 0c-1.19-.013-2.38.17-3.52.537-12.034 3.98-11.875 15.14-11.544 18.462.834 8.254 6.526 17.167 17.358 18.474 5.643.647 11.31.952 16.978.928 8.575 0 16.819-.586 23.259-1.233a2.54 2.54 0 002.171-1.612c.38-.88.22-1.905-.417-2.625C76.56 11.905 60.428 0 50.062 0zM167.815 9.878c.135 0 .258.012.393.036 2.895.965 3.778 2.37 4.269 3.627.503 1.44.674 2.967.527 4.469-.086.891-1.092 8.73-8.673 9.658-5.238.598-10.513.88-15.788.855-2.429 0-4.931-.049-7.495-.147 14.107-14.347 23.418-18.498 26.767-18.498zm0-9.878c-10.366 0-26.497 11.905-44.284 32.93a2.477 2.477 0 00-.417 2.626 2.503 2.503 0 002.171 1.612c6.44.647 14.684 1.233 23.271 1.233 5.679.024 11.347-.28 16.977-.928 10.832-1.307 16.524-10.22 17.359-18.474.331-3.321.49-14.482-11.544-18.462A11.175 11.175 0 00167.815 0zM206.58 59.927H13.42v164.961h193.16V59.928z"/>
    <path fill="#fff" d="M129.076 60.258H90.912v164.631h38.164V60.258z"/>
    <path fill="#000" d="M206.58 59.927H13.42v34.287h193.16V59.927z" opacity=".19"/>
    <path fill="#FFD803" d="M220 34.567H0v34.08h220v-34.08z"/>
    <path fill="#fff" d="M137.699 34.567H82.301v34.08h55.398v-34.08z"/>
  </g>
  <defs>
    <clipPath id="clip0_8:295">
      <path fill="#fff" d="M0 0h220v224.889H0z"/>
    </clipPath>
  </defs>
</svg>
