<svg xmlns="http://www.w3.org/2000/svg" width="91" height="91" fill="none" viewBox="0 0 91 91">
  <path fill="#FFD803" d="M45.5 65.483l23.432 14.143-6.218-26.656 20.703-17.934-27.263-2.313L45.5 7.584 34.845 32.723 7.583 35.036 28.286 52.97l-6.219 26.656L45.5 65.483z"/>
  <path fill="#272343" d="M44.194 49.362c-.819-.78-2.392-2.015-3.601-2.977l.026-.091h3.549v-1.105h-3.38c.013-.156.013-.299.013-.455v-1.222h3.042V42.42h-1.794c.351-.598.754-1.3 1.092-1.95l-1.209-.377c-.234.702-.689 1.638-1.079 2.327h-2.184l.871-.364c-.247-.507-.767-1.339-1.157-1.937l-1.027.377c.364.598.832 1.404 1.079 1.924h-1.677v1.092h2.847v1.196c0 .156 0 .312-.013.481h-3.211v1.105h3.016c-.299 1.053-1.118 2.184-3.172 3.068.286.221.663.598.832.858 1.677-.819 2.626-1.807 3.146-2.795 1.131.949 2.444 2.08 3.133 2.795l.858-.858zm-8.671-7.28c-.325-.533-.988-1.352-1.56-1.976l-.923.533c.546.637 1.222 1.534 1.534 2.08l.949-.637zm-.117 4.147l-.195.026h-1.118c.702-.884 1.573-2.158 2.08-2.899l-.754-.338-.156.065h-2.626v.975h1.872c-.52.754-1.157 1.651-1.43 1.911a1.18 1.18 0 01-.637.403c.117.221.351.754.416 1.027.091-.104.455-.195.767-.195h1.105c-.39 1.885-1.196 3.263-2.327 4.03.247.169.637.572.806.832.611-.468 1.144-1.092 1.599-1.911 1.001 1.404 2.574 1.664 5.083 1.664 1.443 0 3.081-.039 4.342-.117.065-.312.208-.858.39-1.118-1.378.13-3.367.195-4.719.195-2.301 0-3.848-.208-4.654-1.599.299-.793.533-1.703.676-2.743l-.52-.208zm21.166.299v3.562h-3.185v-4.316h4.017v-4.55h-1.339v3.38h-2.678v-4.498h-1.339v4.498h-2.6v-3.38h-1.274v4.55h3.874v4.316h-3.146v-3.562H47.55v4.771h9.022v.715h1.339v-5.486h-1.339z"/>
</svg>
